<svg xmlns="http://www.w3.org/2000/svg" viewBox="0 0 512 512">
<defs>
 <linearGradient id="g" x1="80" y1="70" x2="430" y2="450" gradientUnits="userSpaceOnUse">
  <stop stop-color="#35d9ff"/><stop offset=".48" stop-color="#6f5cff"/><stop offset="1" stop-color="#b43cff"/>
 </linearGradient>
 <linearGradient id="n" x1="300" y1="210" x2="410" y2="350" gradientUnits="userSpaceOnUse">
  <stop stop-color="#36e8ff"/><stop offset="1" stop-color="#b43cff"/>
 </linearGradient>
</defs>
<rect width="512" height="512" rx="116" fill="#07080d"/>
<path d="M150 355c8-77 19-154 31-228 3-18 16-29 34-29h137c15 0 27 12 27 27s-12 27-27 27H263l-8 43h77c15 0 27 12 27 27s-12 27-27 27h-86l-10 70c-3 20-20 34-40 34h-8c-20 0-37-16-35-38z" fill="url(#g)"/>
<path d="M329 189v94c0 25 16 39 37 39 20 0 37-14 37-39v-58h34v58c0 47-30 76-71 76-42 0-72-29-72-76v-94z" fill="url(#n)"/>
<path d="M374 155h35c2 28 16 47 44 55v34c-19-4-34-11-48-23-13-12-24-27-31-45z" fill="#ff4fb3"/>
<circle cx="363" cy="326" r="11" fill="#fff" opacity=".9"/>
</svg>